<svg id="aa03ddf9-f8f2-4819-a4ce-be9b0a220741" data-name="Layer 1" xmlns="http://www.w3.org/2000/svg" width="v.60911" height="290" viewBox="0 0 1119.60911 699">
<title>error</title>
<circle cx="292.60911" cy="213" r="213" fill="#f2f2f2"/>
<path d="M31.39089,151.64237c0,77.49789,48.6181,140.20819,108.70073,140.20819" transform="translate(-31.39089 -100.5)" fill="#2f2e41"/>
<path d="M140.09162,291.85056c0-78.36865,54.255-141.78356,121.30372-141.78356" transform="translate(-31.39089 -100.5)" fill="#6c63ff"/>
<path d="M70.77521,158.66768c0,73.61476,31.00285,133.18288,69.31641,133.18288" transform="translate(-31.39089 -100.5)" fill="#6c63ff"/>
<path d="M140.09162,291.85056c0-100.13772,62.7103-181.16788,140.20819-181.16788" transform="translate(-31.39089 -100.5)" fill="#2f2e41"/>
<path d="M117.22379,292.83905s15.41555-.47479,20.06141-3.783,23.713-7.2585,24.86553-1.95278,23.16671,26.38821,5.76263,26.5286-40.43935-2.711-45.07627-5.53549S117.22379,292.83905,117.22379,292.83905Z" transform="translate(-31.39089 -100.5)" fill="#a8a8a8"/>
<path d="M168.224,311.78489c-17.40408.14042-40.43933-2.71094-45.07626-5.53548-3.53126-2.151-4.93843-9.86945-5.40926-13.43043-.32607.014-.51463.02-.51463.02s.97638,12.43276,5.61331,15.2573,27.67217,5.67589,45.07626,5.53547c5.02386-.04052,6.7592-1.82793,6.66391-4.47526C173.87935,310.756,171.96329,311.75474,168.224,311.78489Z" transform="translate(-31.39089 -100.5)" opacity="0.2"/>
<ellipse cx="198.60911" cy="424.5" rx="157" ry="21.35866" opacity="0.1"/>
<ellipse cx="310.60911" cy="645.5" rx="170" ry="23.12721" fill="#3f3d56"/>
<path d="M494,726.5c90,23,263-30,282-90" transform="translate(-31.39089 -100.5)" fill="none" stroke="#2f2e41" stroke-miterlimit="10" stroke-width="2"/>
<path d="M341,359.5s130-36,138,80-107,149-17,172" transform="translate(-31.39089 -100.5)" fill="none" stroke="#2f2e41" stroke-miterlimit="10" stroke-width="2"/>
<path d="M215.40233,637.78332s39.0723-10.82,41.47675,24.04449-32.15951,44.78287-5.10946,51.69566" transform="translate(-31.39089 -100.5)" fill="none" stroke="#2f2e41" stroke-miterlimit="10" stroke-width="2"/>

<rect x="108.60911" y="159" width="208" height="242" fill="#2f2e41"/>
<rect x="87.60911" y="135" width="250" height="86" fill="#3f3d56"/>
<rect x="87.60911" y="237" width="250" height="86" fill="#3f3d56"/>
<rect x="87.60911" y="339" width="250" height="86" fill="#3f3d56"/>
<rect x="271.60911" y="150" width="16" height="16" fill="#6c63ff" opacity="0.4"/>
<rect x="294.60911" y="150" width="16" height="16" fill="#6c63ff" opacity="0.8"/>
<rect x="317.60911" y="150" width="16" height="16" fill="#6c63ff"/>
<rect x="271.60911" y="251" width="16" height="16" fill="#6c63ff" opacity="0.4"/>
<rect x="294.60911" y="251" width="16" height="16" fill="#6c63ff" opacity="0.8"/>
<rect x="317.60911" y="251" width="16" height="16" fill="#6c63ff"/>
<rect x="271.60911" y="352" width="16" height="16" fill="#6c63ff" opacity="0.4"/>
<rect x="294.60911" y="352" width="16" height="16" fill="#6c63ff" opacity="0.8"/>
<rect x="317.60911" y="352" width="16" height="16" fill="#6c63ff"/>
<circle cx="316.60911" cy="538" r="79" fill="#2f2e41"/>
<rect x="280.60911" y="600" width="24" height="43" fill="#2f2e41"/>
<rect x="328.60911" y="600" width="24" height="43" fill="#2f2e41"/>
<ellipse cx="300.60911" cy="643.5" rx="20" ry="7.5" fill="#2f2e41"/>
<ellipse cx="348.60911" cy="642.5" rx="20" ry="7.5" fill="#2f2e41"/>
<circle cx="318.60911" cy="518" r="27" fill="#fff"/>
<circle cx="318.60911" cy="518" r="9" fill="#3f3d56"/>
<path d="M271.36733,565.03228c-6.37889-28.56758,14.01185-57.43392,45.544-64.47477s62.2651,10.41,68.644,38.9776-14.51861,39.10379-46.05075,46.14464S277.74622,593.59986,271.36733,565.03228Z" transform="translate(-31.39089 -100.5)" fill="#6c63ff"/>
<ellipse cx="417.21511" cy="611.34365" rx="39.5" ry="12.40027" transform="translate(-238.28665 112.98044) rotate(-23.17116)" fill="#2f2e41"/>
<ellipse cx="269.21511" cy="664.34365" rx="39.5" ry="12.40027" transform="translate(-271.07969 59.02084) rotate(-23.17116)" fill="#2f2e41"/>
<path d="M394,661.5c0,7.732-19.90861,23-42,23s-43-14.268-43-22,20.90861-6,43-6S394,653.768,394,661.5Z" transform="translate(-31.39089 -100.5)" fill="#fff"/>
</svg>